<svg xmlns="http://www.w3.org/2000/svg" width="4442" height="1250" viewBox="0 0 4442 1250" version="1.1"><path d="M 616.500 187.645 C 615.400 187.801, 603.250 188.628, 589.500 189.481 C 575.750 190.334, 558.425 191.465, 551 191.993 C 543.575 192.522, 520.850 194.095, 500.500 195.490 C 467.313 197.765, 435.262 200.105, 418.500 201.478 C 415.200 201.748, 405.750 202.451, 397.500 203.040 C 289.964 210.720, 114.988 228.273, 84.500 234.440 C 69.390 237.496, 68.902 238.307, 68.223 261.509 C 67.509 285.876, 69.359 320.814, 78.499 455.500 C 88.939 609.362, 94.175 696.294, 102.501 854 C 109.374 984.180, 113.649 1041.745, 116.988 1049.075 C 119.300 1054.148, 120.910 1054.491, 143 1054.614 C 154.390 1054.677, 179.720 1053.719, 200 1052.458 C 220.075 1051.209, 241.675 1049.913, 248 1049.577 C 254.325 1049.242, 262.425 1048.743, 266 1048.468 C 269.575 1048.193, 287.350 1047.309, 305.500 1046.503 C 323.650 1045.698, 343.900 1044.798, 350.500 1044.504 C 357.100 1044.210, 365.875 1043.759, 370 1043.502 C 374.125 1043.244, 382.450 1042.791, 388.500 1042.495 C 435.369 1040.202, 476.179 1037.265, 521 1032.960 C 537.382 1031.386, 685.901 1013.378, 698.750 1011.408 C 701.980 1010.912, 702 1010.874, 701.992 1005.205 C 701.987 1002.067, 701.308 985.550, 700.482 968.500 C 699.657 951.450, 697.863 911.625, 696.496 880 C 695.128 848.375, 693.562 812.600, 693.015 800.500 C 692.468 788.400, 691.790 773.325, 691.508 767 C 690.313 740.150, 689.881 730.960, 688.480 702.500 C 687.668 686, 686.791 669.125, 686.532 665 C 686.273 660.875, 685.811 651.875, 685.506 645 C 685.200 638.125, 684.736 629.575, 684.474 626 C 684.212 622.425, 683.549 610.950, 683 600.500 C 682.452 590.050, 681.792 577.675, 681.534 573 C 681.276 568.325, 680.813 558.200, 680.505 550.500 C 680.196 542.800, 679.728 531.775, 679.465 526 C 679.201 520.225, 678.534 503.125, 677.983 488 C 672.884 348.188, 661.804 206.876, 654.794 192.257 C 652.567 187.612, 649.896 186.975, 633.500 187.176 C 625.250 187.277, 617.600 187.488, 616.500 187.645 M 530 398.625 C 508.781 400.291, 442.949 406.185, 408 409.548 C 393.975 410.898, 372.825 412.921, 361 414.044 C 319.917 417.946, 296.899 421.181, 293.264 423.563 C 291.784 424.532, 291 426.038, 291 427.911 C 291 430.987, 297.644 453.983, 309.663 492.500 C 321.882 531.663, 325.530 547.486, 322.851 549.708 C 320.941 551.292, 308.088 553.551, 290 555.480 C 266.866 557.948, 241.938 560.977, 239.284 561.644 C 237.455 562.103, 237.074 562.702, 237.552 564.366 C 238.273 566.878, 252.580 592.880, 260.893 606.787 C 286.500 649.631, 313.978 696.030, 361.987 777.500 C 410.379 859.620, 426.013 884.745, 425.997 880.372 C 425.983 876.567, 416.506 844.662, 392.174 766.500 C 368.385 690.083, 354.437 641.911, 355.385 639.440 C 355.986 637.872, 366.285 636.421, 398 633.438 C 440.336 629.455, 454.724 627.676, 456.151 626.249 C 457.239 625.161, 481.684 574.042, 489.886 555.701 C 493.280 548.111, 495.782 541.455, 495.444 540.910 C 494.466 539.326, 450.126 540.540, 405.277 543.378 L 397.055 543.899 393.900 533.699 C 388.245 515.413, 385.058 501.567, 386.339 500.849 C 387.451 500.225, 422.292 496.440, 468 491.978 C 479.825 490.824, 495.983 489.019, 503.907 487.967 C 520.576 485.754, 520.534 485.778, 527.598 474.054 C 531.974 466.792, 550.347 430.132, 560.827 407.750 L 565.861 397 556.680 397.125 C 551.631 397.194, 539.625 397.869, 530 398.625" stroke="none" fill="#e3bb0c" fill-rule="evenodd"/><path d="M 4107.500 141.942 C 4099.718 142.529, 4098.833 142.882, 4075.033 154.886 C 4045.373 169.844, 4033.298 176.574, 4032.099 178.815 C 4029.298 184.048, 4023.224 253.396, 4020.828 307.500 C 4019.281 342.418, 4019.296 478.013, 4020.851 518.500 C 4023.248 580.903, 4025.867 613.490, 4029.541 626.603 C 4030.863 631.323, 4031.403 631.934, 4036.735 634.756 C 4060.277 647.212, 4103.895 655.338, 4161.500 658 C 4174.700 658.610, 4186.962 659.330, 4188.750 659.600 L 4192 660.091 4191.968 708.295 C 4191.903 807.219, 4189.719 903.357, 4187.400 909.400 C 4186.522 911.689, 4167.373 911.532, 4140 909.012 C 4128.175 907.923, 4118.163 907.025, 4117.750 907.016 C 4117.337 907.007, 4116.996 874.487, 4116.992 834.750 C 4116.982 747.235, 4116.367 739.604, 4108.728 732.236 C 4104.804 728.451, 4102.846 727.682, 4089.196 724.568 C 4071.256 720.475, 4019.815 713.852, 4018.235 715.432 C 4017.561 716.106, 4014.399 797.154, 4012.965 850.500 C 4011.801 893.803, 4012.039 907.521, 4014.580 943.500 C 4018.536 999.524, 4025.557 1044.571, 4031.318 1050.895 C 4034.314 1054.183, 4055.228 1070.846, 4068.163 1080.250 L 4078.823 1088 4155.731 1088 L 4232.639 1088 4264.195 1063.949 L 4295.751 1039.899 4296.394 1032.199 C 4298.854 1002.751, 4300.101 979.727, 4300.978 947.500 C 4302.250 900.792, 4302.267 709.552, 4301.004 660.500 C 4300.193 628.997, 4296.103 525.765, 4295.650 525.369 C 4295.568 525.297, 4287.850 524.480, 4278.500 523.554 C 4251.452 520.876, 4231.598 518.167, 4220.135 515.589 C 4203.861 511.930, 4185.359 510.081, 4139 507.481 C 4111.279 505.926, 4091.156 504.420, 4085.352 503.465 C 4083.167 503.106, 4082.032 502.265, 4081.644 500.718 C 4079.569 492.450, 4074 404.308, 4074 379.733 C 4074 359.692, 4074.615 354.872, 4079.227 338.750 C 4082.126 328.620, 4082.453 328.001, 4084.901 328.015 C 4094.922 328.072, 4156.342 330.047, 4164.132 330.562 L 4173.764 331.199 4174.377 336.849 C 4175.295 345.311, 4177.742 387.936, 4179.063 418.500 C 4179.705 433.350, 4180.337 445.621, 4180.467 445.769 C 4180.809 446.157, 4298.107 444.233, 4298.467 443.834 C 4298.633 443.650, 4299.521 436.975, 4300.440 429 C 4302.796 408.555, 4303.451 365.393, 4302.115 318.500 C 4300.033 245.424, 4297.943 214.530, 4293.328 188.629 L 4290.500 172.758 4258.756 156.879 L 4227.012 141 4171.256 141.169 C 4140.590 141.262, 4111.900 141.610, 4107.500 141.942 M 2866 142.637 C 2862.975 142.847, 2843.930 144.157, 2823.679 145.547 C 2761.543 149.811, 2757.630 150.638, 2721.799 167.058 C 2701.783 176.231, 2688.786 183.490, 2682.894 188.786 C 2678.925 192.354, 2677.952 193.944, 2677.083 198.286 C 2674.693 210.221, 2670.882 285.897, 2668.007 378.500 C 2663.840 512.702, 2664.026 594.931, 2669.088 855.500 L 2671.283 968.500 2680.257 993.500 C 2696.264 1038.088, 2705.297 1057.202, 2721.047 1079.805 L 2729.500 1091.938 2735 1091.967 C 2738.025 1091.983, 2754.225 1091.548, 2771 1090.999 C 2810.032 1089.723, 2910.344 1087.012, 2919.500 1086.986 L 2926.500 1086.966 2947.500 1072.424 C 2959.050 1064.427, 2968.904 1057.483, 2969.398 1056.993 C 2970.484 1055.918, 2972.531 1020.726, 2973.964 978.500 C 2976.259 910.872, 2977.731 774.041, 2976.353 756.342 L 2975.718 748.185 2971.609 747.600 C 2959.650 745.898, 2858.181 740.485, 2857.171 741.496 C 2856.967 741.700, 2857.790 759.335, 2859 780.684 C 2860.943 814.953, 2861.146 826.294, 2860.732 877.500 C 2860.328 927.485, 2857.761 1002.496, 2856.405 1003.911 C 2855.922 1004.415, 2821.513 1001.215, 2810.508 999.642 L 2802.516 998.500 2801.848 993.802 C 2800.475 984.142, 2796.736 891.433, 2793.506 787 C 2787.396 589.382, 2785.001 417.984, 2787.896 385.500 C 2789.129 371.664, 2796.502 328.099, 2797.819 326.860 C 2799.347 325.423, 2823.659 319, 2827.569 319 C 2830.966 319, 2832.659 319.726, 2836.308 322.750 C 2838.798 324.813, 2841.733 327.646, 2842.830 329.047 C 2847.446 334.938, 2849.198 347.404, 2850.974 387 C 2854.736 470.831, 2855.413 479.643, 2858.346 482.871 C 2861.380 486.210, 2867.540 488.648, 2879.324 491.173 C 2887.967 493.025, 2892.738 493.357, 2911 493.375 C 2930.636 493.395, 2933.613 493.161, 2945.335 490.675 C 2959.373 487.699, 2965.082 485.331, 2967.642 481.423 C 2970.226 477.480, 2970.802 452.523, 2971.607 309.464 L 2972.328 181.428 2954.914 170.550 C 2934.205 157.615, 2917.995 148.934, 2907.880 145.365 C 2901.431 143.088, 2898.672 142.728, 2886 142.507 C 2878.025 142.367, 2869.025 142.426, 2866 142.637 M 2007.500 161.285 C 1972.295 179.216, 1965.058 183.174, 1962.697 185.782 C 1958.838 190.047, 1952.202 258.721, 1948.908 328.500 C 1947.571 356.803, 1948.216 473.588, 1949.942 516 C 1950.513 530.025, 1951.653 559.725, 1952.475 582 C 1953.298 604.275, 1954.251 626.455, 1954.594 631.288 L 1955.218 640.077 1959.859 642.420 C 1972.251 648.678, 2013.548 662.204, 2030.008 665.397 C 2034.129 666.197, 2044.025 667.095, 2052 667.393 C 2059.975 667.692, 2081.946 668.944, 2100.825 670.176 L 2135.151 672.416 2134.590 683.958 C 2134.282 690.306, 2133.782 715.300, 2133.479 739.500 C 2132.208 841.080, 2130.034 919.912, 2128.353 925.399 C 2127.805 927.185, 2126.985 927.258, 2114.635 926.623 C 2107.411 926.252, 2091.375 924.493, 2079 922.714 L 2056.500 919.481 2054.829 905.491 C 2052.519 886.158, 2051 838.853, 2051 786.263 C 2051 761.918, 2050.766 742, 2050.481 742 C 2050.196 742, 2043.108 740.452, 2034.731 738.559 C 2014.852 734.068, 1996.543 731.398, 1969.514 729.050 C 1957.421 727.999, 1947.451 727.220, 1947.357 727.320 C 1947.263 727.419, 1946.198 740.775, 1944.991 757 C 1939.255 834.101, 1942.344 977.937, 1951.028 1038.043 C 1954.563 1062.509, 1951.594 1058.488, 1984.631 1083.556 L 2013.226 1105.253 2083.363 1104.113 C 2121.938 1103.486, 2159.053 1102.800, 2165.839 1102.588 L 2178.178 1102.204 2185.226 1097.352 C 2203.859 1084.526, 2220.485 1072.250, 2232.911 1062.144 L 2246.560 1051.043 2249.341 985.271 C 2253.577 885.087, 2253.953 871.448, 2253.969 817 C 2253.984 768.710, 2253.248 733.649, 2250.978 674.500 C 2248.286 604.378, 2244.507 539.173, 2243.046 537.670 C 2242.245 536.845, 2175.798 527.508, 2150 524.595 C 2129.678 522.301, 2105.429 520.149, 2087 519.005 C 2055.059 517.022, 2019.750 515, 2017.063 515 L 2014.345 515 2012.157 487.250 C 2008.292 438.236, 2007.734 427.067, 2007.628 396.500 C 2007.523 366.380, 2008.190 357.825, 2011.522 346.500 C 2012.332 343.750, 2013.860 340.388, 2014.918 339.028 L 2016.843 336.556 2048.672 336.793 C 2066.177 336.923, 2087.490 337.306, 2096.034 337.644 L 2111.568 338.259 2113.314 347.746 C 2115.905 361.831, 2122 434.949, 2122 451.943 C 2122 453.998, 2122.074 454, 2186 454 C 2246.278 454, 2250.001 453.898, 2250.021 452.250 C 2250.032 451.288, 2250.701 442.850, 2251.507 433.500 C 2253.872 406.088, 2253.151 350.755, 2249.475 277.500 C 2247.017 228.518, 2244.730 205.085, 2240.976 190.407 C 2237.700 177.599, 2236.356 176.093, 2225 172.505 C 2221.975 171.549, 2211.175 166.793, 2201 161.935 C 2190.825 157.077, 2179.800 152.397, 2176.500 151.536 C 2166.308 148.877, 2154.957 148.075, 2113 147.048 C 2090.725 146.504, 2065.075 145.817, 2056 145.522 L 2039.500 144.986 2007.500 161.285 M 3134 147.056 C 3106.635 149.219, 3057.638 155.866, 3046.033 158.991 C 3043.943 159.554, 3041.729 160.622, 3041.112 161.365 C 3037.909 165.225, 3031.737 234.910, 3021.570 382 C 3016.320 457.951, 3014.483 504.152, 3010.519 660 C 3006.676 811.099, 3005.081 896.574, 3004.331 991.750 L 3003.675 1075 3071.337 1075 L 3139 1075 3138.981 1067.750 C 3138.970 1063.763, 3138.535 1052.625, 3138.014 1043 C 3135.254 992.032, 3128.796 802.780, 3129.786 801.877 C 3132.277 799.605, 3152.784 796.572, 3188.691 793.164 L 3206.882 791.438 3208.493 798.469 C 3210.653 807.895, 3211.756 834.784, 3213.007 908.500 C 3214.166 976.729, 3216.466 1044.128, 3218.013 1055.195 C 3219.682 1067.131, 3221.683 1072.683, 3225.797 1076.797 C 3232.047 1083.047, 3233.498 1083.260, 3273.250 1083.741 L 3309 1084.173 3308.991 1079.337 C 3308.987 1076.676, 3308.548 1069.550, 3308.016 1063.500 C 3306.801 1049.667, 3303.314 990.034, 3297.490 883.500 C 3279.041 546.036, 3259.875 252.455, 3251.955 186 C 3251.397 181.325, 3249.767 171.546, 3248.332 164.269 L 3245.723 151.039 3242.612 150.547 C 3221.645 147.232, 3157.763 145.179, 3134 147.056 M 1315.271 150.020 C 1299.883 151.108, 1299.829 151.172, 1295.867 173 C 1289.863 206.085, 1288.578 250.548, 1289.351 398.500 C 1289.690 463.400, 1290.433 550.025, 1291.004 591 C 1291.574 631.975, 1293.379 761.760, 1295.015 879.412 C 1296.651 997.063, 1298.135 1093.468, 1298.312 1093.646 C 1298.490 1093.823, 1335.729 1094.467, 1381.067 1095.076 C 1506.145 1096.758, 1551.577 1095.094, 1561.698 1088.462 C 1565.156 1086.196, 1566.894 1077.495, 1568.982 1052 C 1569.917 1040.573, 1572.994 977.078, 1572.998 969.117 L 1573 965.734 1543.750 966.278 C 1509.688 966.912, 1494.792 968.476, 1469.758 974.050 C 1448.815 978.713, 1446.478 978.877, 1445.605 975.750 C 1442.383 964.205, 1442.379 826.631, 1445.588 390.239 C 1446.536 261.395, 1447.004 155.671, 1446.629 155.296 C 1445.179 153.846, 1413.268 151.008, 1387.500 150.037 C 1357.740 148.916, 1330.976 148.909, 1315.271 150.020 M 3348.500 150.924 C 3343 151.248, 3337.938 151.874, 3337.250 152.316 C 3335.477 153.454, 3335.622 178.046, 3337.659 221.833 C 3339.820 268.284, 3339.999 422.883, 3338.176 670 C 3337.157 808.140, 3337.106 874.154, 3337.952 956.500 C 3338.557 1015.350, 3339.384 1065.300, 3339.789 1067.500 L 3340.526 1071.500 3346.513 1072.141 C 3349.806 1072.494, 3376.463 1072.832, 3405.750 1072.891 L 3459 1073 3459 866.500 C 3459 752.925, 3459.338 660.003, 3459.750 660.006 C 3460.957 660.015, 3481.024 672.786, 3486.687 677.150 C 3504.938 691.211, 3507.289 704.813, 3509.996 812 C 3511.617 876.189, 3515.993 1030.637, 3516.782 1051.500 L 3517.500 1070.500 3538.680 1076.164 C 3570.187 1084.590, 3585.432 1087.088, 3609.250 1087.726 L 3629 1088.255 3629.011 1073.878 C 3629.016 1065.970, 3629.669 1018.550, 3630.462 968.500 C 3632.918 813.313, 3633.269 761.657, 3632.099 727.500 C 3629.659 656.253, 3625.268 636.854, 3605.774 611.202 C 3592.843 594.188, 3589.835 586.004, 3595.750 583.933 C 3600.780 582.171, 3605.375 572.811, 3611.476 551.900 C 3621.034 519.138, 3629.499 469.468, 3633.187 424.500 C 3634.979 402.658, 3634.985 297.204, 3633.197 272.500 C 3630.446 234.519, 3627.536 213.945, 3622.819 199.142 C 3618.756 186.391, 3615.401 183.104, 3597.784 174.615 C 3560.206 156.506, 3541.169 152.989, 3470 151.006 C 3433.405 149.986, 3365.208 149.940, 3348.500 150.924 M 3762 151.604 C 3756.775 151.780, 3737.203 152.425, 3718.507 153.038 C 3699.812 153.650, 3684.404 154.263, 3684.268 154.399 C 3683.462 155.205, 3680.890 290.526, 3680.055 376 C 3678.394 546.230, 3675.542 1079.875, 3676.289 1080.622 C 3677.218 1081.552, 3836.584 1077.076, 3877.500 1074.971 C 3906.447 1073.482, 3909.043 1072.909, 3914.584 1066.776 C 3923.569 1056.831, 3953.648 983.394, 3958.470 959.631 C 3960.022 951.981, 3960.646 946.575, 3965.064 902.500 C 3966.222 890.950, 3968.058 875.650, 3969.144 868.500 C 3970.230 861.350, 3971.533 852.350, 3972.039 848.500 C 3974.216 831.946, 3975.159 751.507, 3975.684 537.500 L 3976.244 309.500 3962.007 274.500 C 3938.525 216.769, 3929.497 197.735, 3922.320 190.819 C 3916.569 185.278, 3902.364 176.702, 3884.430 167.945 C 3854.858 153.504, 3847.125 151.958, 3802.500 151.560 C 3785.450 151.408, 3767.225 151.428, 3762 151.604 M 2458.008 166.250 C 2458.034 207.414, 2465.282 410.920, 2469.521 489.500 C 2470.322 504.350, 2470.982 518.192, 2470.988 520.260 L 2471 524.021 2426.250 523.760 L 2381.500 523.500 2380.362 461 C 2379.736 426.625, 2378.490 350.800, 2377.592 292.500 C 2376.693 234.200, 2375.694 180.042, 2375.370 172.149 L 2374.782 157.797 2342.641 158.284 C 2314.034 158.718, 2304.186 159.481, 2302.254 161.413 C 2299.783 163.883, 2299.510 215.535, 2299.730 638.896 C 2299.856 882.764, 2300.081 1082.404, 2300.230 1082.540 C 2300.493 1082.782, 2319.865 1084.822, 2343 1087.046 C 2349.325 1087.654, 2364.140 1089.239, 2375.923 1090.569 C 2387.705 1091.899, 2397.462 1092.871, 2397.604 1092.729 C 2397.746 1092.587, 2397.238 1083.252, 2396.474 1071.985 C 2391.013 991.445, 2375.375 633.292, 2377.238 631.428 C 2378.197 630.469, 2391.620 634.290, 2417.682 642.941 C 2451.792 654.262, 2467.253 660.612, 2468.478 663.803 C 2469.657 666.876, 2471.920 722.131, 2474.014 799 C 2477.304 919.739, 2483.567 1095.775, 2484.612 1096.912 C 2484.821 1097.139, 2505.131 1096.562, 2529.746 1095.630 C 2593.693 1093.208, 2613.599 1091.578, 2617.020 1088.482 C 2621.059 1084.827, 2621.510 1076.264, 2621.326 1006.754 C 2620.935 858.470, 2613.740 444.192, 2607.958 237 C 2606.561 186.963, 2605.374 161.969, 2604.347 160.969 C 2603.881 160.516, 2596.525 159.659, 2588 159.066 C 2570.956 157.879, 2477.025 154, 2465.334 154 L 2458 154 2458.008 166.250 M 1725.500 156.062 C 1715.600 156.535, 1700.395 157.622, 1691.711 158.477 C 1676.192 160.005, 1638.990 165.910, 1631.872 167.974 L 1628.244 169.027 1627.124 178.263 C 1620.192 235.481, 1606.821 408.833, 1602.540 497 C 1598.009 590.307, 1594.279 757.162, 1590.410 1039.641 L 1589.751 1087.782 1593.625 1088.390 C 1600.220 1089.424, 1645.424 1090.916, 1691.835 1091.632 L 1736.170 1092.315 1735.625 1087.908 C 1735.326 1085.483, 1734.819 1075.850, 1734.499 1066.500 C 1734.180 1057.150, 1733.270 1035.325, 1732.478 1018 C 1731.113 988.157, 1730.227 964.927, 1726.442 859.669 C 1725.555 835.011, 1725.076 814.591, 1725.377 814.290 C 1725.677 813.989, 1729.428 812.906, 1733.712 811.883 C 1747.043 808.700, 1768.266 806.686, 1789.490 806.590 L 1809.480 806.500 1810.153 812 C 1811.079 819.562, 1812.715 868.700, 1814.500 942.500 C 1817.416 1063.159, 1818.801 1085.245, 1823.756 1090.201 C 1827.182 1093.627, 1843.980 1095.643, 1892.922 1098.503 C 1906.904 1099.321, 1918.420 1099.879, 1918.512 1099.745 C 1918.604 1099.610, 1918.090 1092.300, 1917.371 1083.500 C 1915.069 1055.351, 1911.125 995.236, 1907.497 933 C 1898.414 777.177, 1896.703 748.237, 1892.956 687 C 1878.449 449.915, 1865.719 272.415, 1858.960 213 C 1857.005 195.808, 1850.032 157.699, 1848.576 156.242 C 1847.515 155.181, 1746.992 155.034, 1725.500 156.062 M 570.500 158.142 C 559.500 158.603, 537.225 159.901, 521 161.025 C 504.775 162.150, 478 163.941, 461.500 165.006 C 445 166.071, 418.450 167.838, 402.500 168.933 C 386.550 170.029, 364.950 171.404, 354.500 171.989 C 333.821 173.147, 304.749 175.204, 276.500 177.508 C 266.600 178.315, 255.125 179.232, 251 179.545 C 246.875 179.858, 234.950 181.206, 224.500 182.541 C 214.050 183.876, 189.300 186.333, 169.500 188.001 C 104.560 193.473, 96.506 194.415, 78.811 198.611 C 60.314 202.997, 50.789 210.633, 43.909 226.593 L 40.500 234.500 40.609 278.500 C 40.675 305.058, 41.372 334.392, 42.366 352.500 C 43.272 369, 44.676 395.325, 45.486 411 C 46.296 426.675, 47.431 446.025, 48.009 454 C 48.586 461.975, 49.719 479.750, 50.527 493.500 C 51.334 507.250, 52.663 528.400, 53.479 540.500 C 54.296 552.600, 55.442 571.050, 56.026 581.500 C 56.611 591.950, 57.506 606.800, 58.016 614.500 C 58.526 622.200, 59.639 640.200, 60.490 654.500 C 63.388 703.215, 69.530 801.501, 70.488 814.500 C 70.731 817.800, 71.197 825.675, 71.524 832 C 71.851 838.325, 72.756 852.950, 73.537 864.500 C 74.317 876.050, 75.421 893.600, 75.991 903.500 C 76.560 913.400, 77.925 933.875, 79.024 949 C 85.338 1035.912, 89.500 1059.480, 101.125 1074.158 C 102.882 1076.376, 108.180 1081.298, 112.899 1085.095 L 121.478 1092 137.489 1091.996 C 153.551 1091.992, 177.447 1090.665, 226.931 1087.031 C 241.544 1085.958, 260.700 1084.590, 269.500 1083.991 C 278.300 1083.393, 295.175 1082.032, 307 1080.967 C 385.564 1073.893, 407.084 1072.630, 450 1072.576 C 482.010 1072.535, 495.959 1072.928, 511 1074.291 C 521.725 1075.264, 536.125 1076.508, 543 1077.057 C 549.875 1077.606, 566.525 1079.153, 580 1080.496 C 602.680 1082.756, 655.402 1086.141, 688.500 1087.462 C 696.200 1087.769, 713.525 1088.512, 727 1089.113 L 751.500 1090.206 757.854 1083.353 C 772.933 1067.089, 775.327 1061.909, 779.514 1036.500 C 784.305 1007.422, 792.795 966.775, 809.381 893.500 C 810.750 887.450, 815.084 868.775, 819.010 852 C 822.937 835.225, 827.434 815.875, 829.004 809 C 831.846 796.556, 843.310 747.738, 846.968 732.500 C 848.024 728.100, 850.025 719.550, 851.413 713.500 C 854.841 698.564, 864.600 656.404, 871.550 626.500 C 877.505 600.881, 892.519 534.657, 900.003 501 C 901.042 496.325, 903.510 485.525, 905.487 477 C 907.464 468.475, 909.716 458.575, 910.491 455 C 911.266 451.425, 914.651 436.800, 918.014 422.500 C 928.121 379.517, 931 361.611, 931 341.736 C 931 332.588, 930.698 330.787, 928.387 326.148 C 924.699 318.748, 914.931 309.236, 906.468 304.803 C 894.747 298.664, 882.932 294.914, 842.500 284.498 C 833.763 282.248, 825.089 278.513, 824.618 276.800 C 824.421 276.085, 823.767 272.872, 823.164 269.659 C 821.758 262.172, 813.638 245.263, 807.662 237.377 C 799.338 226.394, 793.292 223.112, 774.710 219.492 C 762.710 217.154, 754.391 216.116, 714.500 211.974 C 703.500 210.832, 693.525 209.696, 692.333 209.450 C 690.620 209.097, 689.596 207.272, 687.450 200.752 C 681.961 184.073, 676.507 175.407, 664.358 164.061 L 656.797 157 623.649 157.151 C 605.417 157.234, 581.500 157.680, 570.500 158.142 M 984.550 159.250 C 984.337 159.938, 983.435 169.050, 982.547 179.500 C 979.680 213.223, 978.718 355.363, 979.379 647.500 C 979.941 896.156, 980.940 1028.431, 982.578 1071.284 C 983.149 1086.201, 983.519 1089.207, 984.879 1089.931 C 987.216 1091.175, 1007.918 1092.831, 1035 1093.942 C 1080.126 1095.792, 1140.022 1097.311, 1140.710 1096.623 C 1141.091 1096.242, 1140.627 1074.458, 1139.677 1048.215 C 1133.652 881.653, 1129.017 721.872, 1129.006 680.367 L 1129 657.233 1131.250 656.587 C 1134.257 655.724, 1198.043 654.080, 1230.250 654.036 L 1256 654 1256 649.351 C 1256 646.794, 1255.091 629.132, 1253.980 610.101 C 1252.869 591.071, 1251.612 562.109, 1251.186 545.742 C 1250.533 520.605, 1250.166 515.737, 1248.826 514.397 C 1247.377 512.948, 1246.512 512.990, 1238.870 514.870 C 1225.149 518.247, 1177.154 524.737, 1152.405 526.563 L 1143.309 527.234 1142.674 521.157 C 1140.602 501.330, 1137.118 407.456, 1136.307 349.595 L 1135.678 304.690 1148.589 305.387 C 1176.563 306.897, 1224.457 311.541, 1243.750 314.613 C 1255.806 316.533, 1256.393 316.288, 1257.944 308.673 C 1260.999 293.686, 1263.932 230.794, 1263.980 179.250 L 1264 158 1124.469 158 C 1013.717 158, 984.857 158.258, 984.550 159.250 M 616.500 187.645 C 615.400 187.801, 603.250 188.628, 589.500 189.481 C 575.750 190.334, 558.425 191.465, 551 191.993 C 543.575 192.522, 520.850 194.095, 500.500 195.490 C 467.313 197.765, 435.262 200.105, 418.500 201.478 C 415.200 201.748, 405.750 202.451, 397.500 203.040 C 289.964 210.720, 114.988 228.273, 84.500 234.440 C 69.390 237.496, 68.902 238.307, 68.223 261.509 C 67.509 285.876, 69.359 320.814, 78.499 455.500 C 88.939 609.362, 94.175 696.294, 102.501 854 C 109.374 984.180, 113.649 1041.745, 116.988 1049.075 C 119.300 1054.148, 120.910 1054.491, 143 1054.614 C 154.390 1054.677, 179.720 1053.719, 200 1052.458 C 220.075 1051.209, 241.675 1049.913, 248 1049.577 C 254.325 1049.242, 262.425 1048.743, 266 1048.468 C 269.575 1048.193, 287.350 1047.309, 305.500 1046.503 C 323.650 1045.698, 343.900 1044.798, 350.500 1044.504 C 357.100 1044.210, 365.875 1043.759, 370 1043.502 C 374.125 1043.244, 382.450 1042.791, 388.500 1042.495 C 435.369 1040.202, 476.179 1037.265, 521 1032.960 C 537.382 1031.386, 685.901 1013.378, 698.750 1011.408 C 701.980 1010.912, 702 1010.874, 701.992 1005.205 C 701.987 1002.067, 701.308 985.550, 700.482 968.500 C 699.657 951.450, 697.863 911.625, 696.496 880 C 695.128 848.375, 693.562 812.600, 693.015 800.500 C 692.468 788.400, 691.790 773.325, 691.508 767 C 690.313 740.150, 689.881 730.960, 688.480 702.500 C 687.668 686, 686.791 669.125, 686.532 665 C 686.273 660.875, 685.811 651.875, 685.506 645 C 685.200 638.125, 684.736 629.575, 684.474 626 C 684.212 622.425, 683.549 610.950, 683 600.500 C 682.452 590.050, 681.792 577.675, 681.534 573 C 681.276 568.325, 680.813 558.200, 680.505 550.500 C 680.196 542.800, 679.728 531.775, 679.465 526 C 679.201 520.225, 678.534 503.125, 677.983 488 C 672.884 348.188, 661.804 206.876, 654.794 192.257 C 652.567 187.612, 649.896 186.975, 633.500 187.176 C 625.250 187.277, 617.600 187.488, 616.500 187.645 M 3401 300.235 C 3401 300.506, 3400.545 303.128, 3399.988 306.062 C 3397.450 319.446, 3397.035 328.227, 3398.459 338.420 C 3401.287 358.661, 3403.238 392.924, 3405.522 462.449 C 3406.371 488.271, 3407.197 509.530, 3407.358 509.692 C 3407.991 510.325, 3475.582 506.945, 3481.637 505.978 C 3509.506 501.526, 3513.468 491.390, 3513.486 424.500 C 3513.493 397.856, 3513.151 389.233, 3511.710 379.732 C 3505.873 341.242, 3493.477 316.849, 3475.772 309.017 C 3469.621 306.297, 3454.995 303.393, 3441 302.115 C 3426.411 300.783, 3401 299.589, 3401 300.235 M 3826.993 333.683 C 3826.989 338.532, 3826.548 380.075, 3826.013 426 C 3825.478 471.925, 3824.579 555.850, 3824.017 612.500 C 3822.061 809.335, 3820.099 916.311, 3817.567 964 C 3816.823 978.025, 3816.403 989.699, 3816.634 989.943 C 3816.864 990.187, 3826.458 991.001, 3837.953 991.752 C 3853.880 992.792, 3859.859 992.846, 3863.084 991.977 C 3879.021 987.686, 3881.620 969.538, 3885.491 835.500 C 3889.819 685.615, 3891.335 571.021, 3890.009 494 C 3888.688 417.298, 3886.627 384.857, 3881.442 359.161 C 3878.700 345.569, 3876.986 340.678, 3873.763 337.247 C 3870.910 334.210, 3859.399 330.709, 3843.500 328.040 C 3836.350 326.840, 3829.713 325.635, 3828.750 325.362 C 3827.178 324.916, 3826.999 325.764, 3826.993 333.683 M 3134.806 329.662 C 3130.991 333.877, 3130.189 340.692, 3127.940 388 C 3126.375 420.911, 3125.569 591.432, 3126.840 620.500 C 3128.015 647.363, 3129.251 653.882, 3133.537 655.835 C 3139.063 658.353, 3167.832 657.177, 3193.860 653.369 L 3205.220 651.707 3204.566 597.604 C 3203.734 528.720, 3202.495 473.148, 3200.319 407.104 L 3198.593 354.709 3179.046 345.258 C 3143.054 327.856, 3138.040 326.088, 3134.806 329.662 M 1727.657 341.729 C 1721.420 418.125, 1718.013 495.550, 1718.029 560.500 C 1718.043 616.952, 1719.595 640.297, 1724.692 660.750 C 1727.136 670.557, 1727.362 671, 1729.920 671 C 1734.747 671, 1781.596 667.035, 1789.637 665.946 C 1802.286 664.234, 1804.883 663.314, 1805.645 660.277 C 1806.511 656.828, 1805.344 537.840, 1804.040 496.500 C 1801.929 429.619, 1800.042 387.397, 1798.372 369.692 L 1797.730 362.885 1788.984 358.492 C 1781.584 354.775, 1736.923 336.556, 1730.396 334.591 C 1728.417 333.995, 1728.253 334.421, 1727.657 341.729 M 530 398.625 C 508.781 400.291, 442.949 406.185, 408 409.548 C 393.975 410.898, 372.825 412.921, 361 414.044 C 319.917 417.946, 296.899 421.181, 293.264 423.563 C 291.784 424.532, 291 426.038, 291 427.911 C 291 430.987, 297.644 453.983, 309.663 492.500 C 321.882 531.663, 325.530 547.486, 322.851 549.708 C 320.941 551.292, 308.088 553.551, 290 555.480 C 266.866 557.948, 241.938 560.977, 239.284 561.644 C 237.455 562.103, 237.074 562.702, 237.552 564.366 C 238.273 566.878, 252.580 592.880, 260.893 606.787 C 286.500 649.631, 313.978 696.030, 361.987 777.500 C 410.379 859.620, 426.013 884.745, 425.997 880.372 C 425.983 876.567, 416.506 844.662, 392.174 766.500 C 368.385 690.083, 354.437 641.911, 355.385 639.440 C 355.986 637.872, 366.285 636.421, 398 633.438 C 440.336 629.455, 454.724 627.676, 456.151 626.249 C 457.239 625.161, 481.684 574.042, 489.886 555.701 C 493.280 548.111, 495.782 541.455, 495.444 540.910 C 494.466 539.326, 450.126 540.540, 405.277 543.378 L 397.055 543.899 393.900 533.699 C 388.245 515.413, 385.058 501.567, 386.339 500.849 C 387.451 500.225, 422.292 496.440, 468 491.978 C 479.825 490.824, 495.983 489.019, 503.907 487.967 C 520.576 485.754, 520.534 485.778, 527.598 474.054 C 531.974 466.792, 550.347 430.132, 560.827 407.750 L 565.861 397 556.680 397.125 C 551.631 397.194, 539.625 397.869, 530 398.625" stroke="none" fill="#040404" fill-rule="evenodd"/></svg>